<svg xmlns="http://www.w3.org/2000/svg" width="77.332" height="57.096" viewBox="0 0 77.332 57.096"><defs><style>.a{fill:#ed193a;}</style></defs><g transform="translate(77.332 57.096) rotate(180)"><g transform="translate(0 0)"><path class="a" d="M0,52.073H18.756c-.321,13.67-4.2,15.221-9.067,15.664l-1.878.233V83l2.165-.116c6.359-.358,13.389-1.5,18.079-7.294,4.111-5.076,5.924-13.368,5.924-26.1V25.9H0Z" transform="translate(0 -25.905)"/><path class="a" d="M111,25.9V52.073h18.506c-.321,13.67-4.072,15.221-8.942,15.664l-1.753.233V83l2.04-.116c6.359-.358,13.452-1.5,18.142-7.294,4.111-5.076,5.986-13.368,5.986-26.1V25.9Z" transform="translate(-67.647 -25.905)"/></g></g></svg>